<svg width="138" height="17" viewBox="0 0 138 17" fill="none" xmlns="http://www.w3.org/2000/svg">
<g clip-path="url(#clip0_1_1438)">
<path d="M137.835 4.97704C137.835 4.97704 137.673 3.83322 137.174 3.33098C136.542 2.66997 135.836 2.66673 135.512 2.62784C133.192 2.45935 129.708 2.45935 129.708 2.45935H129.702C129.702 2.45935 126.218 2.45935 123.898 2.62784C123.574 2.66673 122.868 2.66997 122.236 3.33098C121.737 3.83322 121.578 4.97704 121.578 4.97704C121.578 4.97704 121.41 6.32175 121.41 7.66322V8.92044C121.41 10.2619 121.575 11.6066 121.575 11.6066C121.575 11.6066 121.737 12.7504 122.233 13.2527C122.865 13.9137 123.694 13.891 124.064 13.9623C125.392 14.0887 129.705 14.1275 129.705 14.1275C129.705 14.1275 133.192 14.1211 135.512 13.9558C135.836 13.9169 136.542 13.9137 137.174 13.2527C137.673 12.7504 137.835 11.6066 137.835 11.6066C137.835 11.6066 138 10.2651 138 8.92044V7.66322C138 6.32175 137.835 4.97704 137.835 4.97704ZM127.991 10.4466V5.78386L132.472 8.12333L127.991 10.4466Z" fill="white"/>
</g>
<g clip-path="url(#clip1_1_1438)">
<path d="M106.608 0H92.4707C91.7935 0 91.2458 0.534644 91.2458 1.19566V15.3913C91.2458 16.0523 91.7935 16.5902 92.4707 16.5902H106.608C107.285 16.5902 107.836 16.0523 107.836 15.3945V1.19566C107.836 0.534644 107.285 0 106.608 0ZM96.1678 14.1373H93.7052V6.21807H96.1678V14.1373ZM94.9365 5.13906C94.1459 5.13906 93.5076 4.50073 93.5076 3.71334C93.5076 2.92596 94.1459 2.28763 94.9365 2.28763C95.7239 2.28763 96.3622 2.92596 96.3622 3.71334C96.3622 4.49749 95.7239 5.13906 94.9365 5.13906ZM105.383 14.1373H102.924V10.2878C102.924 9.37085 102.908 8.18815 101.644 8.18815C100.364 8.18815 100.17 9.18939 100.17 10.223V14.1373H97.7134V6.21807H100.072V7.30032H100.105C100.432 6.67819 101.236 6.02041 102.431 6.02041C104.923 6.02041 105.383 7.65999 105.383 9.79208V14.1373Z" fill="white"/>
</g>
<g clip-path="url(#clip2_1_1438)">
<path d="M69.377 1.49376C71.5934 1.49376 71.8559 1.50348 72.7275 1.54237C73.5376 1.57801 73.975 1.7141 74.2666 1.82751C74.6522 1.97656 74.9309 2.15802 75.2192 2.4464C75.5109 2.73802 75.6891 3.01345 75.8381 3.39904C75.9515 3.69066 76.0876 4.13134 76.1233 4.93816C76.1622 5.81304 76.1719 6.0755 76.1719 8.2886C76.1719 10.5049 76.1622 10.7674 76.1233 11.639C76.0876 12.4491 75.9515 12.8865 75.8381 13.1782C75.6891 13.5638 75.5076 13.8424 75.2192 14.1308C74.9276 14.4224 74.6522 14.6006 74.2666 14.7497C73.975 14.8631 73.5343 14.9992 72.7275 15.0348C71.8526 15.0737 71.5902 15.0834 69.377 15.0834C67.1607 15.0834 66.8982 15.0737 66.0266 15.0348C65.2165 14.9992 64.7791 14.8631 64.4875 14.7497C64.1019 14.6006 63.8232 14.4192 63.5349 14.1308C63.2432 13.8392 63.065 13.5638 62.916 13.1782C62.8026 12.8865 62.6665 12.4459 62.6308 11.639C62.5919 10.7642 62.5822 10.5017 62.5822 8.2886C62.5822 6.07226 62.5919 5.8098 62.6308 4.93816C62.6665 4.1281 62.8026 3.69066 62.916 3.39904C63.065 3.01345 63.2465 2.73478 63.5349 2.4464C63.8265 2.15478 64.1019 1.97656 64.4875 1.82751C64.7791 1.7141 65.2198 1.57801 66.0266 1.54237C66.8982 1.50348 67.1607 1.49376 69.377 1.49376ZM69.377 0C67.1251 0 66.8432 0.00972079 65.9586 0.048604C65.0772 0.0874872 64.4713 0.230059 63.9464 0.434196C63.3988 0.648053 62.9354 0.929956 62.4753 1.39331C62.0119 1.85343 61.73 2.31679 61.5162 2.86115C61.312 3.38932 61.1695 3.99201 61.1306 4.87336C61.0917 5.76119 61.082 6.04309 61.082 8.29508C61.082 10.5471 61.0917 10.829 61.1306 11.7136C61.1695 12.5949 61.312 13.2008 61.5162 13.7258C61.73 14.2734 62.0119 14.7367 62.4753 15.1968C62.9354 15.657 63.3988 15.9421 63.9431 16.1527C64.4713 16.3569 65.074 16.4994 65.9553 16.5383C66.8399 16.5772 67.1218 16.5869 69.3738 16.5869C71.6258 16.5869 71.9077 16.5772 72.7923 16.5383C73.6736 16.4994 74.2796 16.3569 74.8045 16.1527C75.3489 15.9421 75.8122 15.657 76.2723 15.1968C76.7325 14.7367 77.0176 14.2734 77.2282 13.729C77.4323 13.2008 77.5749 12.5982 77.6138 11.7168C77.6527 10.8322 77.6624 10.5503 77.6624 8.29832C77.6624 6.04634 77.6527 5.76443 77.6138 4.87984C77.5749 3.99849 77.4323 3.39256 77.2282 2.86763C77.0241 2.31679 76.7422 1.85343 76.2788 1.39331C75.8187 0.933196 75.3553 0.648053 74.811 0.437436C74.2828 0.233299 73.6801 0.0907274 72.7988 0.0518442C71.9109 0.0097208 71.629 0 69.377 0Z" fill="white"/>
<path d="M69.377 4.03418C67.0246 4.03418 65.1161 5.9427 65.1161 8.29513C65.1161 10.6476 67.0246 12.5561 69.377 12.5561C71.7295 12.5561 73.638 10.6476 73.638 8.29513C73.638 5.9427 71.7295 4.03418 69.377 4.03418ZM69.377 11.0591C67.8509 11.0591 66.6131 9.82129 66.6131 8.29513C66.6131 6.76896 67.8509 5.53118 69.377 5.53118C70.9032 5.53118 72.141 6.76896 72.141 8.29513C72.141 9.82129 70.9032 11.0591 69.377 11.0591Z" fill="white"/>
<path d="M74.8012 3.86561C74.8012 4.41646 74.3541 4.86037 73.8065 4.86037C73.2556 4.86037 72.8117 4.41322 72.8117 3.86561C72.8117 3.31477 73.2589 2.87085 73.8065 2.87085C74.3541 2.87085 74.8012 3.31801 74.8012 3.86561Z" fill="white"/>
</g>
<g clip-path="url(#clip3_1_1438)">
<path d="M42.8322 1.31604H45.1641L40.0695 7.13883L46.0629 15.0623H41.3701L37.6946 10.2568L33.4889 15.0623H31.1556L36.6047 8.83421L30.8553 1.31604H35.6672L38.9895 5.70851L42.8322 1.31604ZM42.0137 13.6666H43.3059L34.965 2.63851H33.5784L42.0137 13.6666Z" fill="white"/>
</g>
<g clip-path="url(#clip4_1_1438)">
<path d="M8.29508 0C3.71387 0 0 3.71387 0 8.29508C0 12.1851 2.67832 15.4494 6.29132 16.346V10.8301H4.58087V8.29508H6.29132V7.20278C6.29132 4.37947 7.56909 3.07084 10.341 3.07084C10.8666 3.07084 11.7734 3.17403 12.1443 3.27689V5.57463C11.9486 5.55405 11.6085 5.54377 11.1861 5.54377C9.82602 5.54377 9.30044 6.05906 9.30044 7.39855V8.29508H12.0099L11.5444 10.8301H9.30044V16.5294C13.4078 16.0334 16.5905 12.5362 16.5905 8.29508C16.5902 3.71387 12.8763 0 8.29508 0Z" fill="white"/>
</g>
<defs>
<clipPath id="clip0_1_1438">
<rect width="16.5902" height="16.5902" fill="white" transform="translate(121.41)"/>
</clipPath>
<clipPath id="clip1_1_1438">
<rect width="16.5902" height="16.5902" fill="white" transform="translate(91.2458)"/>
</clipPath>
<clipPath id="clip2_1_1438">
<rect width="16.5902" height="16.5902" fill="white" transform="translate(61.082)"/>
</clipPath>
<clipPath id="clip3_1_1438">
<rect width="16.5902" height="16.5902" fill="white" transform="translate(30.164)"/>
</clipPath>
<clipPath id="clip4_1_1438">
<rect width="16.5902" height="16.5902" fill="white"/>
</clipPath>
</defs>
</svg>
