<svg width="52" height="53" viewBox="0 0 52 53" fill="none" xmlns="http://www.w3.org/2000/svg">
<g filter="url(#filter0_d_1_464)">
<path d="M4 22.5C4 10.0736 14.0736 0 26.5 0H52V45H26.5C14.0736 45 4 34.9264 4 22.5Z" fill="white"/>
<path d="M35.8325 26.5317L33.0808 26.2175C32.7573 26.1795 32.4293 26.2154 32.1216 26.3223C31.8139 26.4293 31.5344 26.6046 31.3042 26.835L29.3108 28.8284C26.2354 27.2643 23.7357 24.7646 22.1716 21.6892L24.1758 19.685C24.6417 19.2192 24.8691 18.5692 24.7933 17.9084L24.4791 15.1784C24.4177 14.6499 24.1641 14.1625 23.7666 13.8089C23.369 13.4553 22.8554 13.2602 22.3233 13.2609H20.4492C19.225 13.2609 18.2066 14.2792 18.2825 15.5034C18.8566 24.755 26.2558 32.1434 35.4967 32.7175C36.7208 32.7934 37.7391 31.775 37.7391 30.5509V28.6767C37.75 27.5825 36.9266 26.6617 35.8325 26.5317Z" fill="#E21E26"/>
</g>
<defs>
<filter id="filter0_d_1_464" x="0" y="0" width="56" height="53" filterUnits="userSpaceOnUse" color-interpolation-filters="sRGB">
<feFlood flood-opacity="0" result="BackgroundImageFix"/>
<feColorMatrix in="SourceAlpha" type="matrix" values="0 0 0 0 0 0 0 0 0 0 0 0 0 0 0 0 0 0 127 0" result="hardAlpha"/>
<feOffset dy="4"/>
<feGaussianBlur stdDeviation="2"/>
<feComposite in2="hardAlpha" operator="out"/>
<feColorMatrix type="matrix" values="0 0 0 0 0 0 0 0 0 0 0 0 0 0 0 0 0 0 0.25 0"/>
<feBlend mode="normal" in2="BackgroundImageFix" result="effect1_dropShadow_1_464"/>
<feBlend mode="normal" in="SourceGraphic" in2="effect1_dropShadow_1_464" result="shape"/>
</filter>
</defs>
</svg>
