<svg width="18" height="13" viewBox="0 0 18 13" fill="none" xmlns="http://www.w3.org/2000/svg">
<path d="M17.1492 3.09521C17.1492 3.09521 16.9834 1.92427 16.4725 1.41012C15.8257 0.733434 15.1026 0.730117 14.7709 0.690311C12.3958 0.517822 8.82994 0.517822 8.82994 0.517822H8.8233C8.8233 0.517822 5.25742 0.517822 2.88237 0.690311C2.55066 0.730117 1.82753 0.733434 1.1807 1.41012C0.669866 1.92427 0.507328 3.09521 0.507328 3.09521C0.507328 3.09521 0.334839 4.47181 0.334839 5.84509V7.13212C0.334839 8.5054 0.504011 9.882 0.504011 9.882C0.504011 9.882 0.669866 11.0529 1.17738 11.5671C1.82422 12.2438 2.6734 12.2206 3.05155 12.2935C4.41156 12.4229 8.82662 12.4627 8.82662 12.4627C8.82662 12.4627 12.3958 12.4561 14.7709 12.2869C15.1026 12.2471 15.8257 12.2438 16.4725 11.5671C16.9834 11.0529 17.1492 9.882 17.1492 9.882C17.1492 9.882 17.3184 8.50872 17.3184 7.13212V5.84509C17.3184 4.47181 17.1492 3.09521 17.1492 3.09521ZM7.07187 8.69448V3.92117L11.6594 6.31612L7.07187 8.69448Z" fill="black"/>
</svg>
